<?xml version="1.0" encoding="UTF-8"?>
<svg id="Layer_5" data-name="Layer 5" xmlns="http://www.w3.org/2000/svg" width="2.3216in" height="1.5in" viewBox="0 0 167.1543 108">
  <defs>
    <style>
      .cls-1 {
        stroke-linecap: round;
        stroke-linejoin: round;
        stroke-width: .2969px;
      }

      .cls-1, .cls-2 {
        stroke: #231f20;
      }

      .cls-1, .cls-2, .cls-3 {
        fill: #231f20;
      }

      .cls-2 {
        stroke-miterlimit: 10;
        stroke-width: 2.3015px;
      }

      .cls-3 {
        stroke-width: 0px;
      }
    </style>
  </defs>
  <path class="cls-3" d="M27.4377,35.7508l-1.3573,3.5323c-.218.5673-.763.9417-1.3707.9417h-9.7521c-.811,0-1.4684.6574-1.4684,1.4684v7.7328c0,.811.6574,1.4684,1.4684,1.4684h11.0405c.811,0,1.4684.6574,1.4684,1.4684v21.5574c0,.811-.6574,1.4684-1.4684,1.4684H7.8954c-1.0357,0-1.7459-1.0433-1.3662-2.0069l1.448-3.6741c.2212-.5612.763-.93,1.3662-.93h9.6267c.8117,0,1.4694-.6585,1.4684-1.4701l-.0099-8.5836c-.0009-.8103-.6581-1.4668-1.4684-1.4668H7.8913c-.811,0-1.4684-.6574-1.4684-1.4684v-20.5648c0-.811.6574-1.4684,1.4684-1.4684h18.1756c1.0303,0,1.7403,1.0334,1.3707,1.9951Z"/>
  <path class="cls-3" d="M54.2049,35.759l-1.3568,3.5249c-.2182.5669-.763.9409-1.3704.9409h-9.7394c-.811,0-1.4684.6574-1.4684,1.4684v25.6161c0,.811.6574,1.4684,1.4684,1.4684h11.066c.811,0,1.4684.6574,1.4684,1.4684v3.6741c0,.811-.6574,1.4684-1.4684,1.4684h-18.1234c-.811,0-1.4684-.6574-1.4684-1.4684v-38.626c0-.809.6544-1.4656,1.4634-1.4684l18.1537-.0628c1.0329-.0036,1.7465,1.032,1.3755,1.996Z"/>
  <path class="cls-3" d="M59.673,35.2278v38.6963c0,.811.6574,1.4684,1.4684,1.4684h18.1201c.811,0,1.4684-.6574,1.4684-1.4684v-38.6963c0-.811-.6574-1.4684-1.4684-1.4684h-18.1201c-.811,0-1.4684.6574-1.4684,1.4684ZM72.1826,68.7815h-3.9599c-.811,0-1.4684-.6574-1.4684-1.4684v-25.6161c0-.811.6574-1.4684,1.4684-1.4684h3.9599c.811,0,1.4684.6574,1.4684,1.4684v25.6161c0,.811-.6574,1.4684-1.4684,1.4684Z"/>
  <path class="cls-3" d="M159.996,35.4338l-1.3573,3.5323c-.218.5673-.763.9417-1.3707.9417h-9.7521c-.811,0-1.4684.6574-1.4684,1.4684v7.7328c0,.811.6574,1.4684,1.4684,1.4684h11.0405c.811,0,1.4684.6574,1.4684,1.4684v21.5574c0,.811-.6574,1.4684-1.4684,1.4684h-18.1027c-1.0357,0-1.7459-1.0433-1.3662-2.0069l1.448-3.6741c.2212-.5612.763-.93,1.3662-.93h9.6267c.8117,0,1.4694-.6585,1.4684-1.4701l-.0099-8.5836c-.0009-.8103-.6581-1.4668-1.4684-1.4668h-11.0688c-.811,0-1.4684-.6574-1.4684-1.4684v-20.5648c0-.811.6574-1.4684,1.4684-1.4684h18.1756c1.0303,0,1.7403,1.0334,1.3707,1.9951Z"/>
  <path class="cls-3" d="M86.0987,34.9071v38.6963c0,.811.6574,1.4684,1.4684,1.4684h18.1201c.811,0,1.4684-.6574,1.4684-1.4684v-38.6963c0-.811-.6574-1.4684-1.4684-1.4684h-18.1201c-.811,0-1.4684.6574-1.4684,1.4684ZM98.6083,68.4609h-3.9599c-.811,0-1.4684-.6574-1.4684-1.4684v-25.6161c0-.811.6574-1.4684,1.4684-1.4684h3.9599c.811,0,1.4684.6574,1.4684,1.4684v25.6161c0,.811-.6574,1.4684-1.4684,1.4684Z"/>
  <path class="cls-3" d="M133.5143,35.4314l-1.35,3.5323c-.2173.5686-.7629.9442-1.3717.9442h-2.8113c-.811,0-1.4684.6574-1.4684,1.4684v32.2271c0,.811-.6574,1.4684-1.4684,1.4684h-3.9754c-.811,0-1.4684-.6574-1.4684-1.4684v-32.2271c0-.811-.6574-1.4684-1.4684-1.4684h-4.1393c-.811,0-1.4684-.6574-1.4684-1.4684v-3.5323c0-.811.6574-1.4684,1.4684-1.4684h18.1498c1.0292,0,1.7391,1.0313,1.3717,1.9927Z"/>
  <rect class="cls-3" x="76.9144" y="80.7363" width="12.7611" height="17.3338" rx="1.4685" ry="1.4685"/>
  <path class="cls-1" d="M160.7314,95.9534v-12.4638c0-1.1684-.9472-2.1156-2.1156-2.1156h-57.8914c-.7571,0-.8984,1.0772-.1669,1.2725l57.5127,15.351c1.3432.3585,2.6612-.6538,2.6612-2.0441Z"/>
  <path class="cls-1" d="M6.4979,95.3158v-12.4638c0-1.1684.9472-2.1156,2.1156-2.1156h57.8914c.7571,0,.8984,1.0772.1669,1.2725l-57.5127,15.351c-1.3432.3585-2.6612-.6538-2.6612-2.0441Z"/>
  <path class="cls-2" d="M98.5674,27.1521l5.367-11.3083c.1203-.2535.3759-.4151.6566-.4151h24.4459c.5647,0,.9137.616.6233,1.1004l-1.9878,3.3164c-.1313.2191-.368.3531-.6233.3531h-19.4095c-.1958,0-.3832.079-.52.219l-7.3757,7.5538c-.5735.5873-1.5285-.0778-1.1765-.8193Z"/>
  <path class="cls-2" d="M68.0226,27.1521l-5.367-11.3083c-.1203-.2535-.3759-.4151-.6566-.4151h-24.4459c-.5647,0-.9137.616-.6233,1.1004l1.9878,3.3164c.1313.2191.368.3531.6233.3531h19.4095c.1958,0,.3832.079.52.219l7.3757,7.5538c.5735.5873,1.5285-.0778,1.1765-.8193Z"/>
  <path class="cls-3" d="M83.294,9.9298c-5.6821,0-10.2866,4.6045-10.2866,10.2867s4.6045,10.2896,10.2866,10.2896,10.2897-4.6075,10.2897-10.2896-4.6075-10.2867-10.2897-10.2867ZM83.2956,24.179c-2.1876,0-3.9611-1.7734-3.9611-3.9611s1.7735-3.9611,3.9611-3.9611,3.9611,1.7734,3.9611,3.9611-1.7735,3.9611-3.9611,3.9611Z"/>
</svg>