<?xml version="1.0" encoding="UTF-8"?>
<svg id="Layer_1" data-name="Layer 1" xmlns="http://www.w3.org/2000/svg" width="4.164in" height="1.593in" viewBox="0 0 299.821 114.687">
  <defs>
    <style>
      .cls-1 {
        fill: #6c0345;
        stroke-width: 0px;
      }
    </style>
  </defs>
  <path class="cls-1" d="M15.216,74.157h0v-31.243h0c-2.766,0-5.008-2.242-5.008-5.008v-3.941l23.876.064c2.218,0,4.249.393,6.09,1.179,1.841.787,3.43,1.853,4.766,3.199,1.335,1.346,2.375,2.919,3.118,4.717.743,1.799,1.115,3.711,1.115,5.735,0,2.37-.415,4.33-1.244,5.88s-2.009,2.8-3.538,3.748c1.615,1.034,2.892,2.31,3.829,3.829s1.405,3.366,1.405,5.541c0,2.219-.382,4.254-1.147,6.106s-1.809,3.452-3.134,4.798-2.892,2.391-4.701,3.134c-1.809.743-3.759,1.115-5.848,1.115H10.208v-3.845c0-2.766,2.242-5.008,5.008-5.008ZM25.943,42.914v10.985h7.69c.603,0,1.173-.15,1.712-.453.538-.301,1.006-.705,1.405-1.211.398-.506.716-1.077.953-1.712.237-.635.355-1.297.355-1.987,0-.667-.119-1.335-.355-2.003-.237-.667-.555-1.271-.953-1.809-.399-.538-.867-.975-1.405-1.309-.539-.333-1.11-.501-1.712-.501h-7.69ZM25.943,62.752v11.405h8.142c.625,0,1.211-.162,1.761-.485s1.023-.748,1.422-1.276c.398-.528.716-1.142.953-1.842.236-.7.355-1.427.355-2.181,0-.796-.119-1.535-.355-2.213-.237-.679-.561-1.271-.97-1.777-.409-.506-.888-.905-1.438-1.196-.549-.291-1.126-.436-1.729-.436h-8.142Z"/>
  <path class="cls-1" d="M53.664,66.144c0-2.434.441-4.717,1.325-6.85.883-2.132,2.111-3.995,3.683-5.589,1.572-1.594,3.446-2.854,5.622-3.78,2.175-.926,4.566-1.389,7.172-1.389s5.002.463,7.189,1.389c2.186.926,4.065,2.187,5.638,3.78,1.572,1.594,2.795,3.457,3.667,5.589.873,2.132,1.309,4.416,1.309,6.85s-.425,4.723-1.276,6.866c-.851,2.144-2.057,4.017-3.619,5.622-1.562,1.605-3.436,2.871-5.622,3.796s-4.615,1.389-7.286,1.389c-2.693,0-5.132-.463-7.318-1.389-2.187-.926-4.055-2.186-5.605-3.78-1.551-1.594-2.752-3.462-3.603-5.605-.851-2.143-1.276-4.442-1.276-6.898ZM63.325,66.144c0,1.271.215,2.439.646,3.505.431,1.066,1.018,1.987,1.761,2.763s1.604,1.378,2.585,1.809c.98.431,2.03.646,3.15.646,1.142,0,2.202-.21,3.183-.63.98-.42,1.831-1.018,2.552-1.793s1.287-1.696,1.696-2.763c.409-1.066.614-2.245.614-3.538,0-1.335-.205-2.542-.614-3.619-.409-1.077-.975-1.992-1.696-2.746s-1.572-1.33-2.552-1.729c-.98-.398-2.041-.586-3.183-.565-1.12-.021-2.17.167-3.15.565-.98.399-1.842.975-2.585,1.729s-1.33,1.669-1.761,2.746c-.431,1.077-.646,2.283-.646,3.619Z"/>
  <path class="cls-1" d="M124.518,61.718h-9.079v-3.457c-.883,0-1.691.06-2.423.178-.732.118-1.373.318-1.922.598s-1.013.667-1.389,1.163c-.377.496-.641,1.109-.792,1.841v12.116h1.806c2.768,0,5.011,2.244,5.011,5.011v3.841h-21.841v-3.845c0-2.766,2.242-5.008,5.008-5.008h0v-15.767h0c-2.73,0-4.943-2.213-4.943-4.943v-3.91h14.894v2.358c.948-.753,2.014-1.335,3.199-1.745,1.185-.409,2.477-.614,3.877-.614,1.422,0,2.886.011,4.394.032,1.508.022,2.908.032,4.2.032v12.116Z"/>
  <path class="cls-1" d="M129.752,66.144c0-2.434.441-4.717,1.325-6.85.883-2.132,2.111-3.995,3.683-5.589,1.572-1.594,3.446-2.854,5.622-3.78,2.175-.926,4.566-1.389,7.172-1.389s5.003.463,7.189,1.389c2.186.926,4.065,2.187,5.638,3.78,1.572,1.594,2.795,3.457,3.667,5.589s1.309,4.416,1.309,6.85-.426,4.723-1.276,6.866c-.851,2.144-2.057,4.017-3.618,5.622-1.562,1.605-3.437,2.871-5.622,3.796-2.187.926-4.615,1.389-7.286,1.389-2.693,0-5.132-.463-7.318-1.389-2.187-.926-4.055-2.186-5.605-3.78-1.551-1.594-2.752-3.462-3.603-5.605-.851-2.143-1.276-4.442-1.276-6.898ZM139.413,66.144c0,1.271.215,2.439.646,3.505.431,1.066,1.018,1.987,1.761,2.763s1.604,1.378,2.585,1.809c.98.431,2.03.646,3.15.646,1.142,0,2.202-.21,3.183-.63s1.831-1.018,2.553-1.793,1.287-1.696,1.696-2.763c.409-1.066.613-2.245.613-3.538,0-1.335-.204-2.542-.613-3.619-.409-1.077-.975-1.992-1.696-2.746s-1.572-1.33-2.553-1.729c-.98-.398-2.041-.586-3.183-.565-1.12-.021-2.17.167-3.15.565-.98.399-1.842.975-2.585,1.729s-1.33,1.669-1.761,2.746c-.431,1.077-.646,2.283-.646,3.619Z"/>
  <path class="cls-1" d="M280.247,52.57c-1.85-1.62-3.33-4.3-3.93-6.66-.27-1.07-.31-2.15-.71-3.18-.482-1.238-1.146-2.425-1.866-3.518-1.007-1.528-2.207-2.914-3.535-4.173-.146-.139-.293-.276-.439-.408,1.87-2.24,3.92-5.29,5.8-8.81,4.33-8.07,6.17-15.5,4.13-16.59-1.23-.66-3.59,1.11-6.21,4.39-.78.96-1.32,2.09-1.56,3.31-.4,2.07-.98,4.33-1.72,6.66-1.05,3.31-2.28,6.29-3.53,8.69-.4-.27-.83-.52-1.26-.77,1.23-2.38,2.45-5.34,3.49-8.62.49-1.55.91-3.07,1.25-4.52,1.33-5.58,1.54-10.17.52-11.88-.21-.34-.46-.57-.76-.67-2.22-.7-6.26,5.8-9.03,14.53-.98,3.08-1.67,6.03-2.05,8.58-11.15-1.94-38.54,20.92-44.6,26.12-.76.65-1.2,1.6-1.2,2.61v16.5h-4.74v-11.99c0-4.33-1.09-7.62-3.27-9.87-2.17-2.25-5.27-3.38-9.3-3.38-1.92,0-3.74.32-5.48.96-1.73.63-3.3,1.5-4.7,2.6v-2.94h-15.25v4c0,1.34.54,2.55,1.42,3.43s2.09,1.42,3.43,1.42v15.77c-2.71,0-4.91,2.2-4.91,4.91v3.94h20.81v-3.43c0-1.5-.61-2.85-1.59-3.83s-2.34-1.59-3.84-1.59v-12.89c1.07-1.36,2.18-2.29,3.33-2.78,1.14-.5,2.27-.75,3.39-.75,1.63,0,2.95.54,3.94,1.6.99,1.07,1.49,2.54,1.49,4.41v12.99c0,3.463,2.807,6.27,6.27,6.27h35.807c2.058,0,3.955-1.113,4.959-2.91l8.925-15.98-3.73-7.17-.7-2.36,8.56,9.65c.84,1.03,2,1.75,3.3,2.04l7.97,1.77c.56.12,1.06.4,1.47.8,2.4,2.32,11.36,10.17,16.38,2.91,5.83-8.44-5.12-17.78-6.73-19.19ZM269.837,47.19c-.28.83-.96,1.51-1.79,1.8-2.32.79-4.5-1.39-3.71-3.7.29-.84.97-1.52,1.8-1.8,2.31-.77,4.48,1.39,3.7,3.7Z"/>
  <g>
    <path class="cls-1" d="M22.008,102.328c.088,0,.177.017.265.05.088.033.173.09.254.171l1.479,1.557c-.648.846-1.459,1.485-2.434,1.915-.975.431-2.128.646-3.46.646-1.222,0-2.316-.208-3.284-.624-.968-.416-1.789-.989-2.462-1.722s-1.19-1.601-1.551-2.605-.541-2.096-.541-3.273c0-1.199.195-2.302.585-3.306.39-1.004.938-1.871,1.645-2.6s1.553-1.295,2.539-1.7c.986-.405,2.072-.607,3.256-.607.604,0,1.172.053,1.706.16.533.106,1.032.253,1.496.441.464.188.89.414,1.28.679.39.265.736.552,1.038.861l-1.258,1.689c-.081.103-.176.197-.287.282s-.265.127-.464.127c-.132,0-.258-.029-.375-.088-.118-.059-.243-.131-.375-.215s-.278-.177-.436-.276c-.158-.1-.346-.191-.563-.276-.217-.084-.471-.156-.762-.215s-.631-.088-1.021-.088c-.618,0-1.183.114-1.694.342-.512.228-.953.561-1.325.999-.372.438-.659.975-.861,1.611-.203.637-.304,1.363-.304,2.18,0,.824.112,1.556.337,2.197.224.64.53,1.179.916,1.617.386.438.837.771,1.352.999.515.229,1.067.342,1.656.342.338,0,.647-.017.927-.05.28-.033.541-.088.784-.166.243-.077.471-.18.685-.309.213-.128.431-.292.651-.491.088-.073.184-.134.287-.182.103-.048.21-.072.32-.072Z"/>
    <path class="cls-1" d="M39.68,90.406v16.083h-3.753v-6.8h-6.535v6.8h-3.753v-16.083h3.753v6.723h6.535v-6.723h3.753Z"/>
    <path class="cls-1" d="M57.22,106.489h-2.892c-.324,0-.585-.075-.784-.226s-.35-.344-.453-.58l-.949-2.804h-6.115l-.949,2.804c-.081.206-.226.392-.436.557-.209.166-.469.249-.778.249h-2.914l6.226-16.083h3.819l6.226,16.083ZM51.292,100.341l-1.49-4.404c-.11-.279-.229-.609-.354-.988s-.25-.789-.375-1.231c-.11.449-.229.865-.354,1.248s-.243.714-.353.993l-1.479,4.382h4.404Z"/>
    <path class="cls-1" d="M76.57,90.406v16.083h-3.29v-9.25c0-.213.005-.445.017-.695.011-.25.031-.504.061-.762l-4.271,8.268c-.133.258-.311.453-.536.585s-.48.199-.767.199h-.508c-.287,0-.542-.066-.767-.199s-.403-.327-.535-.585l-4.272-8.29c.022.265.041.524.055.778s.022.488.022.701v9.25h-3.289v-16.083h2.848c.162,0,.304.004.425.011.122.007.23.029.326.066.096.037.182.094.259.171.078.077.153.186.227.326l4.139,8.157c.147.28.289.57.425.872.136.302.267.611.392.927.125-.324.256-.64.392-.949.136-.309.281-.604.436-.883l4.128-8.124c.074-.14.149-.249.227-.326s.164-.134.259-.171c.096-.037.204-.059.326-.066s.263-.011.425-.011h2.848Z"/>
    <path class="cls-1" d="M85.6,90.406c1.111,0,2.057.104,2.836.309.78.206,1.417.497,1.91.872.493.375.852.832,1.076,1.369.225.538.337,1.137.337,1.799,0,.361-.052.708-.155,1.043s-.265.647-.485.938c-.221.291-.504.558-.85.8-.346.243-.762.453-1.247.629,1.06.257,1.843.673,2.351,1.247.508.574.762,1.317.762,2.23,0,.684-.133,1.321-.397,1.91-.265.589-.653,1.102-1.165,1.54-.512.438-1.143.78-1.893,1.027s-1.608.37-2.572.37h-6.424v-16.083h5.917ZM83.414,93.199v3.974h1.943c.412,0,.784-.029,1.115-.088.332-.059.613-.162.845-.309.232-.147.408-.349.53-.607.122-.257.182-.581.182-.971,0-.383-.048-.701-.144-.955s-.243-.458-.441-.613c-.199-.154-.451-.265-.756-.331-.305-.066-.667-.099-1.087-.099h-2.186ZM86.041,103.675c.493,0,.896-.062,1.208-.188s.558-.287.734-.486c.176-.199.298-.423.364-.673.066-.25.099-.504.099-.761,0-.294-.039-.56-.116-.795-.078-.235-.21-.434-.397-.596-.188-.162-.436-.287-.745-.375-.309-.088-.699-.132-1.17-.132h-2.605v4.007h2.627Z"/>
    <path class="cls-1" d="M98.216,93.277v3.753h5.055v2.76h-5.055v3.83h6.601v2.87h-10.354v-16.083h10.354v2.87h-6.601Z"/>
    <path class="cls-1" d="M120.27,106.489h-3.377c-.625,0-1.075-.235-1.347-.707l-2.671-4.669c-.125-.199-.265-.344-.419-.436-.154-.092-.375-.138-.662-.138h-.95v5.95h-3.73v-16.083h5.232c1.163,0,2.154.12,2.975.359.821.239,1.49.572,2.009.999.519.427.896.931,1.131,1.512.235.582.353,1.214.353,1.898,0,.523-.07,1.016-.209,1.479-.14.463-.346.892-.618,1.286-.272.394-.609.745-1.01,1.054-.401.309-.863.563-1.385.762.243.125.471.282.685.469s.405.41.574.668l3.422,5.596ZM112.345,97.968c.508,0,.94-.064,1.297-.193.357-.128.649-.307.877-.535s.394-.495.497-.8c.103-.305.154-.635.154-.988,0-.707-.23-1.259-.69-1.656-.46-.397-1.172-.596-2.136-.596h-1.501v4.769h1.501Z"/>
    <path class="cls-1" d="M142.512,98.443c0,1.163-.201,2.245-.602,3.245-.401,1.001-.966,1.871-1.694,2.611-.729.739-1.606,1.319-2.633,1.738s-2.166.629-3.417.629-2.392-.21-3.422-.629-1.912-.999-2.644-1.738c-.732-.74-1.299-1.61-1.7-2.611-.401-1-.602-2.083-.602-3.245s.2-2.245.602-3.245c.401-1.001.967-1.869,1.7-2.605.732-.735,1.613-1.313,2.644-1.733s2.171-.629,3.422-.629,2.39.211,3.417.635c1.026.423,1.904,1.002,2.633,1.738s1.293,1.604,1.694,2.605c.401,1.001.602,2.079.602,3.234ZM138.693,98.443c0-.795-.103-1.51-.309-2.147-.206-.636-.502-1.176-.889-1.617s-.859-.78-1.418-1.016c-.559-.235-1.196-.353-1.91-.353-.721,0-1.363.118-1.926.353-.563.236-1.038.574-1.424,1.016s-.683.981-.889,1.617c-.206.637-.309,1.352-.309,2.147,0,.802.103,1.521.309,2.158.206.637.502,1.176.889,1.617.386.442.861.778,1.424,1.01s1.205.348,1.926.348c.714,0,1.351-.116,1.91-.348s1.032-.568,1.418-1.01c.386-.441.683-.98.889-1.617.206-.636.309-1.355.309-2.158Z"/>
    <path class="cls-1" d="M148.462,93.277v4.073h5.498v2.881h-5.498v6.259h-3.753v-16.083h10.354v2.87h-6.601Z"/>
    <path class="cls-1" d="M172.603,102.328c.088,0,.176.017.265.05.088.033.173.09.254.171l1.479,1.557c-.647.846-1.459,1.485-2.434,1.915-.976.431-2.129.646-3.461.646-1.221,0-2.315-.208-3.283-.624-.968-.416-1.788-.989-2.462-1.722-.673-.732-1.19-1.601-1.551-2.605s-.541-2.096-.541-3.273c0-1.199.195-2.302.585-3.306.391-1.004.938-1.871,1.645-2.6.707-.729,1.553-1.295,2.539-1.7s2.071-.607,3.257-.607c.603,0,1.172.053,1.705.16.533.106,1.032.253,1.496.441.463.188.89.414,1.28.679.39.265.735.552,1.037.861l-1.258,1.689c-.081.103-.177.197-.287.282s-.265.127-.464.127c-.133,0-.258-.029-.375-.088-.118-.059-.243-.131-.376-.215-.132-.084-.277-.177-.436-.276-.158-.1-.346-.191-.563-.276-.217-.084-.471-.156-.761-.215-.291-.059-.632-.088-1.021-.088-.618,0-1.183.114-1.694.342s-.953.561-1.324.999c-.372.438-.659.975-.861,1.611-.202.637-.304,1.363-.304,2.18,0,.824.112,1.556.337,2.197.225.64.529,1.179.916,1.617.387.438.837.771,1.353.999.515.229,1.066.342,1.655.342.339,0,.647-.017.928-.05.279-.033.54-.088.783-.166.243-.077.471-.18.685-.309.213-.128.431-.292.651-.491.088-.073.184-.134.287-.182.103-.048.209-.072.32-.072Z"/>
    <path class="cls-1" d="M191.643,98.443c0,1.163-.2,2.245-.602,3.245-.4,1.001-.966,1.871-1.694,2.611-.729.739-1.605,1.319-2.633,1.738-1.026.419-2.165.629-3.416.629s-2.392-.21-3.422-.629-1.911-.999-2.644-1.738c-.732-.74-1.299-1.61-1.7-2.611-.4-1-.602-2.083-.602-3.245s.201-2.245.602-3.245c.401-1.001.968-1.869,1.7-2.605.732-.735,1.613-1.313,2.644-1.733s2.171-.629,3.422-.629,2.39.211,3.416.635c1.027.423,1.904,1.002,2.633,1.738s1.294,1.604,1.694,2.605c.401,1.001.602,2.079.602,3.234ZM187.824,98.443c0-.795-.103-1.51-.309-2.147-.206-.636-.502-1.176-.889-1.617s-.859-.78-1.418-1.016c-.56-.235-1.196-.353-1.91-.353-.721,0-1.363.118-1.926.353-.563.236-1.038.574-1.424,1.016-.387.441-.683.981-.889,1.617-.206.637-.31,1.352-.31,2.147,0,.802.104,1.521.31,2.158.206.637.502,1.176.889,1.617.386.442.86.778,1.424,1.01.562.232,1.205.348,1.926.348.714,0,1.351-.116,1.91-.348.559-.232,1.031-.568,1.418-1.01.387-.441.683-.98.889-1.617.206-.636.309-1.355.309-2.158Z"/>
    <path class="cls-1" d="M211.919,90.406v16.083h-3.289v-9.25c0-.213.006-.445.017-.695.011-.25.031-.504.061-.762l-4.271,8.268c-.133.258-.312.453-.535.585-.225.132-.48.199-.768.199h-.508c-.287,0-.543-.066-.767-.199-.225-.132-.403-.327-.536-.585l-4.271-8.29c.022.265.04.524.056.778.015.254.021.488.021.701v9.25h-3.289v-16.083h2.848c.162,0,.304.004.425.011s.23.029.326.066c.095.037.182.094.259.171s.153.186.227.326l4.14,8.157c.146.28.288.57.425.872.136.302.267.611.392.927.125-.324.256-.64.392-.949.137-.309.282-.604.437-.883l4.128-8.124c.073-.14.149-.249.227-.326s.164-.134.26-.171c.095-.037.204-.059.325-.066s.263-.011.425-.011h2.848Z"/>
    <path class="cls-1" d="M233.113,90.406v16.083h-3.289v-9.25c0-.213.006-.445.017-.695.011-.25.031-.504.061-.762l-4.271,8.268c-.133.258-.312.453-.535.585-.225.132-.48.199-.768.199h-.508c-.287,0-.543-.066-.767-.199-.225-.132-.403-.327-.536-.585l-4.271-8.29c.022.265.04.524.056.778.015.254.021.488.021.701v9.25h-3.289v-16.083h2.848c.162,0,.304.004.425.011s.23.029.326.066c.095.037.182.094.259.171s.153.186.227.326l4.14,8.157c.146.28.288.57.425.872.136.302.267.611.392.927.125-.324.256-.64.392-.949.137-.309.282-.604.437-.883l4.128-8.124c.073-.14.149-.249.227-.326s.164-.134.26-.171c.095-.037.204-.059.325-.066s.263-.011.425-.011h2.848Z"/>
    <path class="cls-1" d="M239.979,93.277v3.753h5.056v2.76h-5.056v3.83h6.601v2.87h-10.354v-16.083h10.354v2.87h-6.601Z"/>
    <path class="cls-1" d="M262.034,106.489h-3.378c-.625,0-1.074-.235-1.347-.707l-2.671-4.669c-.125-.199-.265-.344-.419-.436-.155-.092-.376-.138-.663-.138h-.949v5.95h-3.73v-16.083h5.231c1.163,0,2.154.12,2.976.359.82.239,1.49.572,2.009.999s.896.931,1.131,1.512c.236.582.354,1.214.354,1.898,0,.523-.07,1.016-.21,1.479-.14.463-.346.892-.618,1.286-.271.394-.608.745-1.01,1.054s-.862.563-1.385.762c.242.125.471.282.684.469.214.188.405.41.574.668l3.422,5.596ZM254.108,97.968c.508,0,.94-.064,1.298-.193.356-.128.649-.307.877-.535.229-.228.394-.495.497-.8.103-.305.154-.635.154-.988,0-.707-.229-1.259-.689-1.656-.46-.397-1.172-.596-2.137-.596h-1.501v4.769h1.501Z"/>
    <path class="cls-1" d="M273.945,102.328c.088,0,.176.017.265.05.088.033.173.09.254.171l1.479,1.557c-.647.846-1.459,1.485-2.434,1.915-.976.431-2.129.646-3.461.646-1.221,0-2.315-.208-3.283-.624-.968-.416-1.788-.989-2.462-1.722-.673-.732-1.19-1.601-1.551-2.605s-.541-2.096-.541-3.273c0-1.199.195-2.302.585-3.306.391-1.004.938-1.871,1.645-2.6.707-.729,1.553-1.295,2.539-1.7s2.071-.607,3.257-.607c.603,0,1.172.053,1.705.16.533.106,1.032.253,1.496.441.463.188.89.414,1.28.679.39.265.735.552,1.037.861l-1.258,1.689c-.081.103-.177.197-.287.282s-.265.127-.464.127c-.133,0-.258-.029-.375-.088-.118-.059-.243-.131-.376-.215-.132-.084-.277-.177-.436-.276-.158-.1-.346-.191-.563-.276-.217-.084-.471-.156-.761-.215-.291-.059-.632-.088-1.021-.088-.618,0-1.183.114-1.694.342s-.953.561-1.324.999c-.372.438-.659.975-.861,1.611-.202.637-.304,1.363-.304,2.18,0,.824.112,1.556.337,2.197.225.64.529,1.179.916,1.617.387.438.837.771,1.353.999.515.229,1.066.342,1.655.342.339,0,.647-.017.928-.05.279-.033.54-.088.783-.166.243-.077.471-.18.685-.309.213-.128.431-.292.651-.491.088-.073.184-.134.287-.182.103-.048.209-.072.32-.072Z"/>
    <path class="cls-1" d="M281.329,93.277v3.753h5.056v2.76h-5.056v3.83h6.601v2.87h-10.354v-16.083h10.354v2.87h-6.601Z"/>
  </g>
</svg>